<?xml version="1.0" standalone="no"?>
<!DOCTYPE svg PUBLIC "-//W3C//DTD SVG 20010904//EN"
 "http://www.w3.org/TR/2001/REC-SVG-20010904/DTD/svg10.dtd">
<svg version="1.0" xmlns="http://www.w3.org/2000/svg"
 width="512.000000pt" height="512.000000pt" viewBox="0 0 512.000000 512.000000"
 preserveAspectRatio="xMidYMid meet">
<metadata>
Created by potrace 1.14, written by Peter Selinger 2001-2017
</metadata>
<g transform="translate(0.000000,512.000000) scale(0.100000,-0.100000)"
fill="#000000" stroke="none">
<path d="M2298 4044 c-2 -2 -35 -6 -74 -9 -80 -7 -115 -11 -229 -30 -22 -4
-47 -8 -55 -10 -12 -2 -40 -7 -100 -20 -10 -2 -125 -29 -130 -30 -111 -29
-307 -98 -405 -141 -22 -10 -42 -18 -45 -19 -7 -1 -152 -77 -215 -112 -209
-117 -439 -323 -563 -504 -66 -98 -146 -271 -159 -344 -2 -11 -9 -47 -17 -80
-17 -77 -20 -242 -6 -331 54 -343 280 -651 660 -903 100 -67 272 -156 395
-206 48 -19 91 -35 95 -35 4 0 7 503 7 1117 l-1 1117 223 0 c123 1 225 -3 228
-7 7 -12 13 -88 18 -236 2 -73 6 -135 8 -137 2 -2 10 8 17 24 23 46 92 135
140 180 97 93 220 157 376 198 84 22 125 27 269 29 180 4 273 -8 390 -47 284
-95 454 -290 527 -603 20 -86 21 -120 24 -840 2 -412 3 -760 3 -772 l1 -22 58
23 c87 34 186 79 192 87 3 4 17 10 32 14 15 4 32 13 39 21 6 8 17 14 24 14 13
0 238 146 283 184 132 110 236 217 312 325 33 46 60 90 60 97 0 8 4 14 9 14
13 0 94 188 106 247 9 40 13 58 15 58 6 0 12 77 15 195 4 147 -6 212 -50 344
-33 99 -137 292 -175 326 -3 3 -17 21 -31 40 -41 54 -156 169 -239 237 -197
161 -485 311 -770 403 -73 23 -199 58 -230 64 -14 2 -25 5 -25 6 0 1 -9 3 -20
5 -11 2 -36 7 -55 11 -44 9 -55 11 -105 18 -22 4 -51 9 -65 12 -14 2 -47 7
-75 9 -27 3 -68 8 -90 11 -44 7 -591 14 -597 8z"/>
<path d="M2555 3192 c-161 -14 -316 -82 -414 -181 -62 -63 -143 -195 -156
-256 -2 -11 -11 -45 -19 -75 -36 -134 -38 -172 -38 -870 1 -349 1 -645 1 -656
1 -19 9 -23 57 -29 31 -4 67 -9 81 -11 14 -3 44 -6 68 -8 24 -2 47 -6 51 -8
39 -20 694 -16 789 5 11 3 45 8 75 11 50 6 88 12 130 21 8 2 19 4 23 4 4 1 7
346 6 769 -1 796 -3 849 -44 962 -53 149 -172 259 -324 300 -68 18 -210 29
-286 22z"/>
</g>
</svg>
